<?xml version="1.0" standalone="no"?>
<!DOCTYPE svg PUBLIC "-//W3C//DTD SVG 20010904//EN"
 "http://www.w3.org/TR/2001/REC-SVG-20010904/DTD/svg10.dtd">
<svg version="1.0" xmlns="http://www.w3.org/2000/svg"
 width="172.000000pt" height="172.000000pt" viewBox="0 0 172.000000 172.000000"
 preserveAspectRatio="xMidYMid meet">
<metadata>
Created by potrace 1.11, written by Peter Selinger 2001-2013
</metadata>
<g transform="translate(0.000000,172.000000) scale(0.100000,-0.100000)"
fill="#000000" stroke="none">
<path d="M675 1703 c-246 -52 -473 -229 -587 -458 -117 -234 -117 -536 0 -770
91 -182 254 -334 444 -413 198 -82 451 -83 653 -3 258 103 444 320 515 598 28
106 28 300 0 406 -84 332 -342 581 -667 643 -95 18 -267 17 -358 -3z m390 -47
c89 -24 252 -108 318 -165 125 -109 205 -226 259 -381 31 -91 33 -101 33 -250
0 -149 -2 -159 -33 -250 -76 -220 -216 -381 -417 -480 -125 -62 -191 -80 -325
-87 -573 -30 -1003 544 -812 1085 95 269 327 474 607 536 87 19 283 15 370 -8z"/>
<path d="M755 1604 c-278 -45 -502 -227 -596 -484 -152 -418 82 -868 513 -986
88 -25 289 -25 378 -1 255 68 451 259 532 517 19 63 23 96 23 210 0 152 -18
230 -81 351 -95 180 -273 323 -469 375 -60 16 -244 26 -300 18z"/>
</g>
</svg>
